# xmcd
#
# Track frame offsets:
#	150
#	7500
#	17240
#	26642
#	37585
#	47432
#	57135
#	72805
#	84307
#	94357
#	105755
#	114937
#	126703
#	136901
#
# Disc length: 2009 seconds
#
# Revision: 0
# Processed by: cddbd v1.5.2PL0 Copyright (c) Steve Scherf et al.
# Submitted via: audiograbber 1.83.01
#
DISCID=9d07d70e
DTITLE=Kern-Buam - Weihnachten mit den Kern-Buam
DYEAR=1995
DGENRE=Volksmusik
TTITLE0=Es wird scho glei dumpa
TTITLE1=Besinnliche Zeit (instr.)
TTITLE2=O Tannenbaum
TTITLE3=Sein Lieblingswalzer (instr.)
TTITLE4=I bin a armer Bua
TTITLE5=Bayrischzell (instr.)
TTITLE6=Engel ohne Fluegerl
TTITLE7=Der Summa is aussi (instr.)
TTITLE8=Leise rieselt der Schnee
TTITLE9=In der Sommerseit'n (instr.)
TTITLE10=Armer Holterbua
TTITLE11=Willi's France (instr.)
TTITLE12=Wuensche an das Christkind
TTITLE13=Stille Nacht
EXTD=
EXTT0=
EXTT1=
EXTT2=
EXTT3=
EXTT4=
EXTT5=
EXTT6=
EXTT7=
EXTT8=
EXTT9=
EXTT10=
EXTT11=
EXTT12=
EXTT13=
PLAYORDER=
